<svg width="112" height="129" viewBox="0 0 112 129" fill="none" xmlns="http://www.w3.org/2000/svg">
<g clip-path="url(#clip0)">
<path opacity="0.4" d="M0.0125005 42.3281V14.1094C0.0105219 13.3147 0.164366 12.5275 0.465193 11.793C0.76602 11.0584 1.2079 10.391 1.76545 9.82915C2.32299 9.26724 2.98521 8.82191 3.71406 8.51873C4.44291 8.21556 5.22401 8.06051 6.0125 8.0625H34.0125C39.3625 8.0625 42.0375 14.5881 38.2625 18.3926L29.2125 27.5133L56.0125 54.5227L46.1 64.5L19.2875 37.478L10.2625 46.6113C6.5 50.4032 0.0125005 47.7073 0.0125005 42.3281ZM101.762 82.4139L92.75 91.522L65.925 64.5L56.0125 74.4899L82.8125 101.499L73.7625 110.62C69.9875 114.425 72.6625 120.95 78.0125 120.95H106.012C106.801 120.952 107.582 120.797 108.311 120.494C109.04 120.191 109.702 119.745 110.26 119.183C110.817 118.622 111.259 117.954 111.56 117.22C111.861 116.485 112.014 115.698 112.012 114.903V86.6845C112.012 81.2927 105.537 78.6094 101.762 82.4013V82.4139Z" fill="#4FB3BF"/>
<path d="M92.725 37.4906L29.2 101.512L38.25 110.607C42.025 114.412 39.35 120.938 34 120.938H5.99999C5.2115 120.94 4.4304 120.784 3.70155 120.481C2.9727 120.178 2.31048 119.733 1.75294 119.171C1.19539 118.609 0.753508 117.942 0.452681 117.207C0.151854 116.473 -0.00199032 115.685 -1.16716e-05 114.891V86.6719C-1.16716e-05 81.2801 6.47499 78.5842 10.25 82.3887L19.3 91.5094L82.825 27.4881L73.775 18.3926C70 14.5881 72.675 8.0625 78.025 8.0625H106.025C106.813 8.06051 107.595 8.21556 108.323 8.51873C109.052 8.82191 109.714 9.26724 110.272 9.82915C110.83 10.391 111.271 11.0584 111.572 11.793C111.873 12.5275 112.027 13.3147 112.025 14.1094V42.3281C112.025 47.7199 105.55 50.4158 101.775 46.6113L92.725 37.4906Z" fill="#00838F"/>
</g>
<defs>
<clipPath id="clip0">
<rect width="112" height="129" fill="white"/>
</clipPath>
</defs>
</svg>
